<?xml version="1.0" encoding="utf-8"?>
<!-- Generator: Adobe Illustrator 18.0.0, SVG Export Plug-In . SVG Version: 6.00 Build 0)  -->
<!DOCTYPE svg PUBLIC "-//W3C//DTD SVG 1.1//EN" "http://www.w3.org/Graphics/SVG/1.1/DTD/svg11.dtd">
<svg version="1.1" xmlns="http://www.w3.org/2000/svg" xmlns:xlink="http://www.w3.org/1999/xlink" x="0px" y="0px"
	 viewBox="0 0 500 500" style="enable-background:new 0 0 500 500;" xml:space="preserve">
<style type="text/css">
	.st0{fill:#F78D1E;}
	.st1{fill:#C36828;}
	.st2{fill:#FFFFFF;}
</style>
<g id="Background">
	<rect x="0" y="0" class="st0" width="500" height="500"/>
</g>
<g id="Shadow">
	<polygon class="st1" points="500,500 219.5,500 44.3,325.6 52.5,325.6 250,455.5 454.6,320 454.6,173.1 500,218.5 	"/>
</g>
<g id="Logo">
	<g>
		<path class="st2" d="M459.8,183.7c0-0.3-0.1-0.5-0.1-0.8c-0.1-0.5-0.2-1-0.3-1.5c-0.1-0.3-0.2-0.6-0.3-0.9
			c-0.1-0.4-0.3-0.9-0.5-1.3c-0.1-0.3-0.3-0.6-0.4-0.9c-0.2-0.4-0.4-0.8-0.6-1.2c-0.2-0.3-0.3-0.6-0.5-0.8c-0.2-0.4-0.5-0.7-0.8-1.1
			c-0.2-0.3-0.4-0.5-0.6-0.8c-0.3-0.3-0.6-0.7-0.9-1c-0.2-0.2-0.5-0.5-0.7-0.7c-0.3-0.3-0.7-0.6-1-0.9c-0.3-0.2-0.5-0.4-0.8-0.6
			c-0.1-0.1-0.2-0.2-0.3-0.2L260,43c-6.1-4-14-4-20,0L48,171c-0.1,0.1-0.2,0.2-0.3,0.2c-0.3,0.2-0.5,0.4-0.8,0.6
			c-0.4,0.3-0.7,0.6-1,0.9c-0.3,0.2-0.5,0.5-0.7,0.7c-0.3,0.3-0.6,0.6-0.9,1c-0.2,0.3-0.4,0.5-0.6,0.8c-0.3,0.4-0.5,0.7-0.8,1.1
			c-0.2,0.3-0.4,0.6-0.5,0.8c-0.2,0.4-0.4,0.8-0.6,1.2c-0.1,0.3-0.3,0.6-0.4,0.9c-0.2,0.4-0.3,0.9-0.5,1.3c-0.1,0.3-0.2,0.6-0.3,0.9
			c-0.1,0.5-0.2,1-0.3,1.5c0,0.3-0.1,0.5-0.1,0.8c-0.1,0.8-0.2,1.6-0.2,2.4v128c0,0.8,0.1,1.6,0.2,2.4c0,0.3,0.1,0.5,0.1,0.8
			c0.1,0.5,0.2,1,0.3,1.5c0.1,0.3,0.2,0.6,0.3,0.9c0.1,0.4,0.3,0.9,0.5,1.3c0.1,0.3,0.3,0.6,0.4,0.9c0.2,0.4,0.4,0.8,0.6,1.2
			c0.2,0.3,0.3,0.6,0.5,0.8c0.2,0.4,0.5,0.7,0.8,1.1c0.2,0.3,0.4,0.5,0.6,0.8c0.3,0.3,0.6,0.7,0.9,1c0.2,0.2,0.5,0.5,0.7,0.7
			c0.3,0.3,0.7,0.6,1,0.9c0.3,0.2,0.5,0.4,0.8,0.6c0.1,0.1,0.2,0.2,0.3,0.2l192,128c3,2,6.5,3,10,3c3.5,0,7-1,10-3l192-128
			c0.1-0.1,0.2-0.2,0.3-0.2c0.3-0.2,0.5-0.4,0.8-0.6c0.3-0.3,0.7-0.6,1-0.9c0.2-0.2,0.5-0.5,0.7-0.7c0.3-0.3,0.6-0.6,0.9-1
			c0.2-0.3,0.4-0.5,0.6-0.8c0.3-0.4,0.5-0.7,0.8-1.1c0.2-0.3,0.3-0.6,0.5-0.8c0.2-0.4,0.4-0.8,0.6-1.2c0.1-0.3,0.3-0.6,0.4-0.9
			c0.2-0.4,0.3-0.9,0.5-1.3c0.1-0.3,0.2-0.6,0.3-0.9c0.1-0.5,0.2-1,0.3-1.5c0-0.3,0.1-0.5,0.1-0.8c0.1-0.8,0.2-1.6,0.2-2.4V186
			C460,185.2,459.9,184.4,459.8,183.7z M268,91.8L409.5,186l-63.2,42.3L268,175.9V91.8z M232,91.8v84.2l-78.2,52.3L90.5,186
			L232,91.8z M76.1,219.8l45.2,30.2l-45.2,30.2V219.8z M232,408.2L90.5,314l63.2-42.2L232,324V408.2z M250,292.7L186.2,250
			l63.8-42.7l63.8,42.7L250,292.7z M268,408.2V324l78.2-52.3l63.2,42.2L268,408.2z M423.9,280.2L378.8,250l45.1-30.2V280.2z"/>
	</g>
</g>
</svg>
